<?xml version="1.0" standalone="no"?>
<!DOCTYPE svg PUBLIC "-//W3C//DTD SVG 20010904//EN"
 "http://www.w3.org/TR/2001/REC-SVG-20010904/DTD/svg10.dtd">
<svg version="1.0" xmlns="http://www.w3.org/2000/svg"
 width="512.000000pt" height="512.000000pt" viewBox="0 0 512.000000 512.000000"
 preserveAspectRatio="xMidYMid meet">
<metadata>
Created by potrace 1.14, written by Peter Selinger 2001-2017
</metadata>
<g transform="translate(0.000000,512.000000) scale(0.100000,-0.100000)"
fill="#000000" stroke="none">
<path d="M1597 5044 c-1 -1 -31 -4 -67 -7 -224 -19 -422 -181 -494 -404 -23
-69 -24 -78 -25 -309 l-1 -202 -37 -6 c-103 -18 -230 -50 -251 -63 -50 -31
-62 -69 -62 -190 0 -83 -3 -113 -12 -114 -139 -6 -151 -8 -190 -34 -24 -16
-47 -43 -59 -68 -18 -40 -19 -82 -19 -1087 0 -677 4 -1057 10 -1080 14 -46 51
-87 97 -107 31 -13 83 -16 279 -16 l242 0 0 -371 c0 -204 3 -391 7 -415 37
-248 249 -455 500 -488 28 -4 514 -7 1080 -7 l1030 1 80 26 c180 59 322 198
385 377 25 71 30 183 30 656 l0 220 238 1 c253 1 280 5 331 53 52 50 50 8 50
1140 1 1016 0 1057 -18 1097 -29 62 -84 95 -169 99 -37 1 -73 3 -79 3 -10 1
-13 31 -13 114 0 170 -23 196 -200 232 -3 1 -38 7 -77 14 l-73 13 0 204 c0
112 0 205 0 207 0 18 -47 160 -65 195 -85 164 -254 285 -430 308 -46 5 -2011
13 -2018 8z"/>
</g>
</svg>
