<?xml version="1.0" standalone="no"?>
<!DOCTYPE svg PUBLIC "-//W3C//DTD SVG 20010904//EN"
 "http://www.w3.org/TR/2001/REC-SVG-20010904/DTD/svg10.dtd">
<svg version="1.0" xmlns="http://www.w3.org/2000/svg"
 width="512.000000pt" height="512.000000pt" viewBox="0 0 512.000000 512.000000"
 preserveAspectRatio="xMidYMid meet">
<metadata>
Created by potrace 1.14, written by Peter Selinger 2001-2017
</metadata>
<g transform="translate(0.000000,512.000000) scale(0.100000,-0.100000)"
fill="#000000" stroke="none">
<path d="M1150 5113 c-68 -12 -193 -48 -255 -75 -225 -98 -418 -299 -509 -529
-66 -168 -61 -22 -61 -1944 0 -1629 1 -1745 18 -1813 93 -382 375 -655 762
-736 60 -13 309 -15 1745 -16 1537 0 1680 1 1725 16 88 30 147 80 191 165 25
47 29 64 28 139 0 68 -5 95 -24 134 -51 106 -160 180 -272 185 -17 1 -18 23
-18 321 l0 320 23 0 c13 0 46 7 73 16 87 30 146 81 190 165 l29 54 0 1685 0
1685 -24 49 c-31 63 -94 126 -156 156 -50 25 -50 25 -412 28 l-363 3 0 -971
c0 -1084 4 -1017 -69 -1066 -75 -49 -139 -40 -229 34 -63 51 -230 185 -306
245 -34 26 -70 56 -81 65 -11 9 -42 34 -67 55 l-47 37 -113 -89 c-62 -50 -119
-96 -127 -102 -7 -7 -34 -28 -60 -47 -25 -19 -48 -38 -51 -42 -3 -3 -50 -42
-105 -85 -140 -111 -193 -125 -276 -70 -73 48 -69 -19 -69 1064 l0 972 -532
-2 c-293 -1 -544 -4 -558 -6z m2690 -4153 l0 -320 -1322 2 -1323 3 -50 25
c-64 32 -124 92 -154 155 -35 71 -36 200 -3 267 42 83 123 153 207 177 17 5
618 10 1338 10 l1307 1 0 -320z"/>
</g>
</svg>
